<?xml version="1.0" encoding="UTF-8" standalone="no"?>
<!-- Uploaded to: SVG Repo, www.svgrepo.com, Generator: SVG Repo Mixer Tools -->

<svg
   fill="#000000"
   version="1.1"
   id="Layer_1"
   viewBox="0 0 18.323202 15.420776"
   xml:space="preserve"
   sodipodi:docname="telegram.svg"
   width="18.323202"
   height="15.420776"
   inkscape:version="1.3.2 (091e20e, 2023-11-25, custom)"
   xmlns:inkscape="http://www.inkscape.org/namespaces/inkscape"
   xmlns:sodipodi="http://sodipodi.sourceforge.net/DTD/sodipodi-0.dtd"
   xmlns="http://www.w3.org/2000/svg"
   xmlns:svg="http://www.w3.org/2000/svg"><defs
   id="defs1" /><sodipodi:namedview
   id="namedview1"
   pagecolor="#505050"
   bordercolor="#eeeeee"
   borderopacity="1"
   inkscape:showpageshadow="0"
   inkscape:pageopacity="0"
   inkscape:pagecheckerboard="0"
   inkscape:deskcolor="#505050"
   inkscape:zoom="17.279922"
   inkscape:cx="17.361189"
   inkscape:cy="12.934086"
   inkscape:window-width="2560"
   inkscape:window-height="1369"
   inkscape:window-x="1072"
   inkscape:window-y="384"
   inkscape:window-maximized="1"
   inkscape:current-layer="Layer_1" />
<style
   type="text/css"
   id="style1">
	.st0{fill:none;}
</style>
<path
   d="M 17.151878,0.12433402 0.85187814,6.424334 c -1.1,0.4 -1.1,1.1 -0.2,1.3 l 4.09999996,1.3 1.6,4.8 c 0.2,0.5 0.1,0.7 0.6,0.7 0.4,0 0.6,-0.2 0.8,-0.4 0.1,-0.1 1,-1 2,-2 l 4.1999999,3.1 c 0.8,0.4 1.3,0.2 1.5,-0.7 l 2.8,-13.1 c 0.3,-1.09999998 -0.4,-1.69999998 -1.1,-1.29999998 z m -2.1,2.99999998 -7.7999999,7.1 -0.3,3.3 -1.6,-4.8 9.1999999,-5.8 c 0.4,-0.3 0.8,-0.1 0.5,0.2 z"
   id="path1"
   style="fill:#ffffff;fill-opacity:1" />
<rect
   y="-4.2756658"
   class="st0"
   width="24"
   height="24"
   id="rect1"
   x="-2.0481219" />
</svg>
